<svg xmlns="http://www.w3.org/2000/svg" viewBox="0 0 128 128">
  <!-- Icon dokumen .csv: identik dengan csvfile.ico Windows (halaman + lipatan + koma + band CSV) -->
  <rect x="20.48" y="3.84" width="87.04" height="120.32" rx="6.4" fill="#FFFFFF" stroke="#BDC8C1" stroke-width="2.56"/>
  <polygon points="81.92,3.84 107.52,29.44 81.92,29.44" fill="#D6E2DB"/>
  <g transform="translate(42.24,24.32) scale(0.4352)">
    <path fill="#0F7A4D" d="M77.58,39.38 L77.36,43.6 L76.69,47.81 L75.62,52.08 L74.1,56.35 L72.13,60.62 L69.72,64.94 L66.85,69.27 L63.6,73.6 L56.24,81.8 L48.2,88.93 L39.44,95 L30,100 L23.93,90.28 L30.45,86.57 L36.63,82.58 L42.3,78.15 L47.25,72.98 L51.57,67.19 L54.89,61.24 L56.12,58.09 L57.13,54.61 L57.92,50.79 L58.37,46.63 L50.67,46.63 L44.1,46.24 L38.43,45.06 L33.54,43.09 L29.55,40.34 L26.46,36.85 L24.21,32.81 L22.87,28.2 L22.42,22.92 L22.87,18.65 L24.16,14.61 L26.29,10.73 L29.33,7.08 L32.92,3.99 L36.97,1.8 L41.35,0.45 L46.18,0 L53.37,0.67 L59.72,2.64 L65.11,5.9 L69.55,10.51 L73.03,16.24 L75.56,22.98 L77.08,30.67 L77.58,39.38 Z"/>
  </g>
  <rect x="12.8" y="76.8" width="102.4" height="30.72" rx="6.4" fill="#0F7A4D"/>
  <g transform="translate(43.6,84.16) scale(0.16)">
    <path fill="#FFFFFF" d="M75.4,94.9 L69.7,97.1 L63.2,98.7 L55.9,99.7 L47.7,100 L42.3,99.8 L37.2,99.2 L32.4,98.1 L27.9,96.7 L23.6,94.9 L19.7,92.6 L16.1,90 L12.7,86.9 L9.7,83.5 L7.1,79.8 L5,75.9 L3.2,71.7 L1.8,67.2 L0.8,62.4 L0.2,57.3 L0,52 L0.2,46.4 L0.9,41 L2,35.9 L3.6,31 L5.6,26.5 L8.1,22.2 L11,18.1 L14.3,14.4 L18.1,11 L22,8.1 L26.3,5.6 L30.8,3.6 L35.6,2 L40.6,0.9 L45.9,0.2 L51.5,0 L58.3,0.2 L64.6,0.9 L70.3,2 L75.4,3.6 L75.4,24.5 L70.4,22 L65,20.2 L59.3,19.1 L53.2,18.7 L46.8,19.3 L41,20.9 L35.8,23.6 L31.3,27.3 L27.6,32 L25,37.4 L23.5,43.6 L22.9,50.5 L23.4,57.1 L24.9,63.1 L27.3,68.3 L30.8,72.9 L35.1,76.5 L40,79.1 L45.7,80.6 L52,81.1 L58.3,80.8 L64.3,79.6 L70,77.7 L75.4,75 Z M90.4,94.6 L90.4,73 L96.5,77.3 L99.7,79 L103.1,80.4 L110,82.2 L117,82.9 L120.8,82.7 L124.2,82.1 L127,81.3 L129.3,80.1 L131.1,78.6 L132.4,77 L133.1,75.1 L133.4,73.1 L132.9,70.4 L131.7,68 L129.8,65.9 L127.3,63.9 L124.3,62 L120.7,60.3 L116.7,58.5 L112.4,56.7 L107.1,54.2 L102.5,51.5 L98.7,48.4 L95.5,45.2 L93.1,41.6 L91.4,37.6 L90.3,33.4 L90,28.7 L90.2,25.1 L90.7,21.7 L91.6,18.6 L93,15.7 L96.6,10.8 L101.2,6.8 L106.9,3.8 L113.4,1.7 L120.4,0.4 L127.9,0 L135,0.2 L141.3,0.9 L146.9,2.1 L152,3.7 L152,23.9 L146.8,20.9 L140.9,18.7 L134.8,17.5 L129.1,17.1 L125.6,17.3 L122.4,17.8 L119.6,18.6 L117.2,19.8 L115.4,21.2 L114,22.9 L113.2,24.8 L112.9,26.9 L113.2,29.2 L114.1,31.2 L115.7,33.1 L117.8,34.9 L120.4,36.6 L123.5,38.3 L127.1,39.9 L131.1,41.6 L136.7,44.2 L141.6,46.8 L145.9,49.7 L149.5,53 L152.4,56.7 L154.5,60.8 L155.9,65.6 L156.3,71.1 L156.1,75 L155.5,78.6 L154.6,81.8 L153.2,84.7 L149.6,89.7 L144.9,93.6 L139.2,96.5 L132.7,98.5 L125.5,99.6 L117.9,100 L110.2,99.6 L102.8,98.7 L96.1,96.9 L90.4,94.6 Z M255,1.6 L221.7,98.3 L197,98.3 L164.1,1.6 L187.6,1.6 L207.8,68.9 L209.1,74.1 L209.7,78.6 L210.1,78.6 L210.9,73.8 L212.2,68.6 L232.2,1.6 Z"/>
  </g>
</svg>
