<svg xmlns="http://www.w3.org/2000/svg" viewBox="0 0 128 128">
  <!-- Logo CSV Commander: koma putih (outline glyph Georgia Bold, identik dgn app.ico Windows) dalam lingkaran hijau -->
  <circle cx="64" cy="64" r="63.4" fill="#0F7A4D"/>
  <g transform="translate(30.72,30.72) scale(0.6656)">
    <path fill="#FFFFFF" d="M77.58,39.38 L77.36,43.6 L76.69,47.81 L75.62,52.08 L74.1,56.35 L72.13,60.62 L69.72,64.94 L66.85,69.27 L63.6,73.6 L56.24,81.8 L48.2,88.93 L39.44,95 L30,100 L23.93,90.28 L30.45,86.57 L36.63,82.58 L42.3,78.15 L47.25,72.98 L51.57,67.19 L54.89,61.24 L56.12,58.09 L57.13,54.61 L57.92,50.79 L58.37,46.63 L50.67,46.63 L44.1,46.24 L38.43,45.06 L33.54,43.09 L29.55,40.34 L26.46,36.85 L24.21,32.81 L22.87,28.2 L22.42,22.92 L22.87,18.65 L24.16,14.61 L26.29,10.73 L29.33,7.08 L32.92,3.99 L36.97,1.8 L41.35,0.45 L46.18,0 L53.37,0.67 L59.72,2.64 L65.11,5.9 L69.55,10.51 L73.03,16.24 L75.56,22.98 L77.08,30.67 L77.58,39.38 Z"/>
  </g>
</svg>
